<svg xmlns="http://www.w3.org/2000/svg" enable-background="new 0 0 64 64" viewBox="0 0 64 64">
	<circle cx="32" cy="32" r="32" fill="#ffffff" />
	<path fill="#ffffff" d="M32,11.03c-11.59,0-21,9.35-21,20.94s9.41,21,21,21s21-9.41,21-21S43.59,11.03,32,11.03z M32,48.84
					c-9.29,0-16.81-7.59-16.81-16.87S22.71,15.16,32,15.16s16.81,7.53,16.81,16.81S41.29,48.84,32,48.84z" />
	<path fill="#ffffff" d="M40.66,35.52l-7.64,7.65c-0.25,0.26-0.63,0.41-1.02,0.41s-0.77-0.15-1.02-0.41l-7.64-7.64
				c-0.27-0.27-0.42-0.64-0.42-1.02c0-0.39,0.15-0.75,0.42-1.02c0.27-0.27,0.63-0.42,1.02-0.42c0.39,0,0.75,0.15,1.02,0.42
				l3.26,3.35l1.91,1.91V21.86c0-0.79,0.65-1.44,1.44-1.44s1.44,0.65,1.44,1.44l-0.06,10.31v6.56l5.25-5.25
				c0.27-0.27,0.63-0.42,1.02-0.42c0.38,0,0.74,0.15,1.02,0.42c0.27,0.27,0.42,0.63,0.42,1.02C41.09,34.89,40.94,35.25,40.66,35.52z
				" />
</svg>