<svg xmlns="http://www.w3.org/2000/svg" enable-background="new 0 0 50 50" viewBox="0 0 50 50"><path fill="#4F565C" d="M41,18.8v17.4c0,1.7-1.4,3.1-3.1,3.1c-0.3,0-0.7-0.1-1-0.2c-1.3-0.4-2.2-1.6-2.2-3V18.8H41z"/><path fill="#5A6268" d="M39,18.8v17.4c0,1.4-0.9,2.6-2.2,3c-1.3-0.4-2.2-1.6-2.2-3V18.8H39z"/><ellipse cx="14.8" cy="28.7" fill="#4F565C" rx="13.1" ry="9.8" transform="rotate(-122.357 14.8 28.746)"/><path fill="#FF5766" d="M44.4,6.5c-1.3-0.7-2.4-0.8-3.2-0.3l-9.5,4c0,0,4,2,4,2.2c0.1,0.2,2.7,5.3,2.7,5.3l0.1,5.3l9.3-5.8
		c0,0,0,0,0-0.1c0.7-0.5,1.2-1.5,1.2-2.8C49,11.4,47,7.9,44.4,6.5z M41.5,6.5C41.5,6.5,41.5,6.5,41.5,6.5
		C41.5,6.5,41.5,6.5,41.5,6.5C41.5,6.5,41.5,6.5,41.5,6.5z"/><path fill="#4F565C" d="M21.3,38.8l-2.8,1.6c-1.6,0.9-3.8,0.8-6.3-0.6l2.8-1.6C17.5,39.6,19.7,39.7,21.3,38.8z"/><path fill="#4F565C" d="M6,19l2.8-1.6c-1.6,0.9-2.6,2.9-2.6,5.6c0,5.6,3.9,12.4,8.8,15.2l-2.8,1.6C7.4,37,3.5,30.2,3.5,24.6
		C3.5,21.8,4.5,19.9,6,19z"/><path fill="#ABDA32" d="M12.3,16.8c6.2,3.6,11.2,12.3,11.2,19.4c0,7.1-5.1,10-11.3,6.4S1,30.3,1,23.2C1,16.1,6.1,13.2,12.3,16.8z
			 M12.2,39.8c4.8,2.8,8.8,0.5,8.8-5c0-5.6-3.9-12.4-8.8-15.2s-8.8-0.5-8.8,5C3.5,30.2,7.4,37,12.2,39.8L12.2,39.8z"/><path fill="#EAEAEC" d="M38.8,19.3c0-0.1-1.3-3.6-1.4-3.8c-0.1-0.2-1.9-3.3-2-3.4c-0.1-0.1-2.2-1-2.3-1c-0.1,0-1.9-0.4-1.9-0.4
		l-1,0.2l-0.7,0.4L8.8,13.7c0,0,11.8,8.3,11.8,8.7c0.1,0.4,5,7.5,5,7.5L24.9,40l12-16.1l0,0c0,0,0.8-0.3,1.6-1.5
		C39.2,21.3,38.8,19.3,38.8,19.3z"/><path fill="#73BD1E" d="M4.3,16l2.8-1.6c2-1.2,4.9-1,8,0.8l-2.8,1.6C9.2,14.9,6.3,14.8,4.3,16z"/><path fill="#73BD1E" d="M23,41.8l-2.8,1.6c2-1.2,3.3-3.7,3.3-7.2c0-7.1-5-15.9-11.2-19.4l2.8-1.6c6.2,3.6,11.2,12.3,11.2,19.4
		C26.3,38.1,25,40.6,23,41.8z"/><path fill="#F74457" d="M30.8,10.5l-1.3,0.7c3.3-1.9,8.9,4.1,8.9,9.3c0,1.6-0.6,2.8-1.5,3.3l1.3-0.7c0.9-0.5,1.5-1.7,1.5-3.3
		C39.7,14.5,34.1,8.6,30.8,10.5z"/><path fill="#EAEAEC" d="M20.3,30.2l-6.1,2.5l-3.1-6.2c0,0,0,0,0.1,0l5.4-3.1C18.2,25.3,19.5,27.8,20.3,30.2z"/><path fill="#FFF" d="M12.9,26.8c1.3,0.9,2.2,2.9,2.1,4.5c-0.1,1.6-1.3,2.1-2.6,1.2c-1.3-0.9-2.2-2.9-2.1-4.5
			C10.5,26.4,11.6,25.9,12.9,26.8z"/></svg>