<svg xmlns="http://www.w3.org/2000/svg" width="26" height="26" viewBox="0 0 26 26"><g transform="translate(0 -1026.362)"><circle cx="37.045" cy="28.409" r="12.5" fill="#239fdb" fill-rule="evenodd" transform="matrix(1.04 0 0 1.04 -25.527 1009.817)"/><path style="line-height:normal;text-indent:0;text-align:start;text-decoration-line:none;text-decoration-style:solid;text-decoration-color:#000;text-transform:none;block-progression:tb;isolation:auto;mix-blend-mode:normal" fill="#0b5ecd" d="M 14.871094 25.847656 A 12.999989 12.999989 0 0 0 15.582031 25.740234 A 12.999989 12.999989 0 0 0 16.841797 25.419922 A 12.999989 12.999989 0 0 0 18.0625 24.974609 A 12.999989 12.999989 0 0 0 19.232422 24.408203 A 12.999989 12.999989 0 0 0 20.339844 23.728516 A 12.999989 12.999989 0 0 0 21.375 22.943359 A 12.999989 12.999989 0 0 0 22.326172 22.056641 A 12.999989 12.999989 0 0 0 23.183594 21.080078 A 12.999989 12.999989 0 0 0 23.939453 20.023438 A 12.999989 12.999989 0 0 0 24.585938 18.896484 A 12.999989 12.999989 0 0 0 25.117188 17.710938 A 12.999989 12.999989 0 0 0 25.525391 16.476562 A 12.999989 12.999989 0 0 0 25.771484 15.378906 L 19.986328 9.59375 L 19.828125 9.71875 L 19.117188 9.0078125 L 6.8925781 9.0078125 L 12.849609 14.966797 C 12.797239 14.948897 12.746563 14.922519 12.701172 14.886719 L 6.015625 9.5898438 L 6.015625 16.992188 L 14.871094 25.847656 z " color="#000" font-family="sans-serif" font-weight="400" transform="translate(0 1026.362)"/><path style="line-height:normal;text-indent:0;text-align:start;text-decoration-line:none;text-decoration-style:solid;text-decoration-color:#000;text-transform:none;block-progression:tb;isolation:auto;mix-blend-mode:normal" fill="#fff" d="m 1.9023438,4.015625 6.1171874,4.8476562 6.1093748,-4.8476562 -12.2265622,0 z m -0.8769532,0.5820312 0,7.4023438 13.9707034,0 0,-7.3984375 -6.6660159,5.2929687 c -0.1815644,0.1431288 -0.4375762,0.1431288 -0.6191406,0 L 1.0253906,4.5976562 Z" color="#000" font-family="sans-serif" font-weight="400" overflow="visible" transform="translate(4.99 1031.354)"/></g></svg>