<svg xmlns="http://www.w3.org/2000/svg" enable-background="new 0 0 24 24" viewBox="0 0 24 24">
	<path fill="#ffffff" d="M10.5,21.092c-0.194,0-0.371-0.112-0.453-0.29L3.105,5.838L0.223,3.916c-0.184-0.122-0.265-0.35-0.201-0.561S0.279,3,0.5,3h7c0.199,0,0.379,0.118,0.459,0.301l5,11.5c0.05,0.116,0.055,0.248,0.012,0.368l-2,5.592c-0.068,0.191-0.245,0.322-0.448,0.331C10.515,21.092,10.508,21.092,10.5,21.092z M2.151,4l1.626,1.084C3.854,5.135,3.915,5.206,3.953,5.29l6.487,13.985l1.522-4.256L7.172,4H2.151z" />
	<path fill="#ffffff" d="M3.5 18C3.224 18 3 17.776 3 17.5v-12C3 5.224 3.224 5 3.5 5S4 5.224 4 5.5v12C4 17.776 3.776 18 3.5 18zM10.5 21.092c-.055 0-.11-.009-.166-.028-.26-.091-.397-.377-.306-.637l6-17.092c.092-.261.372-.398.638-.306.26.091.397.377.306.637l-6 17.092C10.899 20.963 10.706 21.092 10.5 21.092z" />
	<path fill="#ffffff" d="M23.5,21h-9c-0.201,0-0.383-0.12-0.461-0.306c-0.078-0.185-0.037-0.399,0.103-0.543L16,18.241V3.5C16,3.224,16.224,3,16.5,3h7c0.202,0,0.385,0.122,0.462,0.309s0.034,0.402-0.108,0.545l-1.853,1.853l0.071,12.592l1.788,1.854c0.139,0.145,0.179,0.358,0.1,0.543C23.882,20.88,23.7,21,23.5,21z M15.684,20h6.64l-1.11-1.151c-0.089-0.093-0.139-0.216-0.14-0.344L21,5.503c-0.001-0.134,0.052-0.262,0.146-0.356L22.293,4H17v14.444c0,0.13-0.051,0.255-0.142,0.349L15.684,20z" />
	<path fill="#6766DB" d="M6.5,21h-6c-0.202,0-0.385-0.122-0.462-0.309s-0.034-0.402,0.108-0.545l3-3c0.195-0.195,0.512-0.195,0.707,0l3,3c0.143,0.143,0.186,0.358,0.108,0.545S6.702,21,6.5,21z" />
</svg>