<svg xmlns="http://www.w3.org/2000/svg" enable-background="new 0 0 24 24" viewBox="0 0 24 24"><path fill="#ffffff" d="M7.733,21.75c-2.68,0-5.274-0.751-7.502-2.173c-0.197-0.125-0.281-0.371-0.201-0.591c0.079-0.22,0.3-0.354,0.532-0.327c0.325,0.041,0.664,0.06,1.066,0.06c1.582,0,3.142-0.418,4.502-1.193c-1.64-0.472-2.985-1.726-3.535-3.393c-0.057-0.17-0.017-0.358,0.104-0.492c0.088-0.098,0.211-0.156,0.339-0.164C1.743,12.521,0.92,10.992,0.92,9.315c0-0.176,0.093-0.365,0.245-0.456c0.152-0.091,0.34-0.12,0.494-0.035c0.086,0.047,0.174,0.09,0.262,0.131c-0.62-0.862-0.965-1.905-0.965-2.997c0-0.918,0.24-1.796,0.714-2.611c0.082-0.142,0.229-0.234,0.392-0.247c0.168-0.012,0.323,0.055,0.427,0.181C4.67,5.936,7.83,7.611,11.232,7.939c-0.014-0.166-0.021-0.339-0.021-0.521c0-2.85,2.338-5.168,5.212-5.168c1.339,0,2.638,0.519,3.605,1.432c0.922-0.209,1.787-0.55,2.574-1.015c0.18-0.105,0.404-0.089,0.566,0.04c0.162,0.129,0.228,0.346,0.164,0.543c-0.177,0.551-0.445,1.064-0.792,1.521c0.258-0.086,0.511-0.183,0.759-0.29c0.203-0.088,0.442-0.031,0.583,0.14c0.142,0.171,0.154,0.416,0.029,0.6c-0.636,0.938-1.397,1.742-2.268,2.392c0.097,3.599-1.341,7.308-3.878,9.971C15.957,19.484,12.746,21.75,7.733,21.75z M2.541,19.677c1.622,0.706,3.386,1.073,5.192,1.073c4.659,0,7.635-2.097,9.311-3.857c2.416-2.536,3.759-6.09,3.593-9.505c-0.008-0.171,0.072-0.335,0.212-0.434c0.419-0.294,0.812-0.627,1.176-0.997c-0.386,0.093-0.78,0.165-1.179,0.215c-0.229,0.029-0.458-0.109-0.536-0.334c-0.077-0.224,0.015-0.472,0.219-0.592c0.462-0.273,0.863-0.626,1.183-1.037c-0.559,0.219-1.143,0.389-1.747,0.508c-0.166,0.037-0.342-0.021-0.46-0.146c-0.796-0.84-1.919-1.321-3.082-1.321c-2.323,0-4.212,1.87-4.212,4.168c0,0.357,0.032,0.669,0.097,0.953c0.035,0.152-0.003,0.313-0.104,0.433c-0.1,0.12-0.25,0.194-0.407,0.179C8.139,8.806,4.692,7.183,2.223,4.501C2.045,4.969,1.956,5.458,1.956,5.959c0,1.393,0.699,2.688,1.871,3.462c0.186,0.123,0.268,0.353,0.202,0.565C3.961,10.2,3.75,10.345,3.541,10.339c-0.52-0.01-1.043-0.104-1.546-0.277c0.316,1.669,1.608,3.007,3.302,3.351c0.228,0.046,0.393,0.242,0.4,0.474c0.008,0.231-0.145,0.438-0.369,0.499c-0.477,0.129-1.003,0.17-1.46,0.171c0.724,1.294,2.094,2.14,3.617,2.173c0.212,0.005,0.398,0.142,0.464,0.343c0.066,0.201-0.001,0.422-0.169,0.552C6.275,18.789,4.443,19.503,2.541,19.677z"/></svg>